<svg id="Capa_1" enable-background="new 0 0 512 512" height="512" viewBox="0 0 512 512" width="512" xmlns="http://www.w3.org/2000/svg"><g><g><path d="m256 0h-256v256l276 20z" fill="#ffe477"/><path d="m512 256v-256h-256v276z" fill="#ffb655"/><path d="m0 256v256h256l20-128-20-128z" fill="#ffb655"/><path d="m256 256h256v256h-256z" fill="#ff7c48"/></g><g><path d="m303.802 369h160.397v30h-160.397z" fill="#e1ebf0"/></g><g><path d="m303.802 113.001h160.397v30h-160.397z" fill="#e1ebf0"/></g><path d="m368.067 304.332h31.867v31.867h-31.867z" fill="#e1ebf0"/><path d="m368.067 431.801h31.867v31.867h-31.867z" fill="#e1ebf0"/><g fill="#fff5f5"><path d="m208.199 113.001h-65.199v-65.199h-30v65.199h-65.198v30h65.198v65.198h30v-65.198h65.199z"/><path d="m195.316 337.897-21.213-21.212-46.103 46.102-46.102-46.102-21.213 21.212 46.102 46.103-46.102 46.103 21.213 21.212 46.102-46.102 46.103 46.102 21.213-21.212-46.103-46.103z"/></g></g></svg>